<?xml version="1.0" encoding="utf-8"?>
<!-- Generator: Adobe Illustrator 25.4.1, SVG Export Plug-In . SVG Version: 6.00 Build 0)  -->
<svg version="1.1" xmlns="http://www.w3.org/2000/svg" xmlns:xlink="http://www.w3.org/1999/xlink" x="0px" y="0px"
	 viewBox="0 0 1080 1080" style="enable-background:new 0 0 1080 1080;" xml:space="preserve">
<style type="text/css">
	.st0{display:none;}
	.st1{display:inline;fill:#FFFFFF;}
	.st2{fill:#143CAA;}
	.st3{fill:#00BEBE;}
	.st4{fill:#0FA0B9;}
	.st5{fill:#0A8FBE;}
	.st6{fill:#1164B4;}
	.st7{fill:#171775;}
</style>
<g id="Background" class="st0">
	<rect x="-10.5" y="-10.5" class="st1" width="1101" height="1101"/>
</g>
<g id="Contenu">
	<g>
		<g>
			<g>
				<g>
					<polygon class="st2" points="270.3,690.4 270.3,754.9 350.2,725.9 380.7,809.7 445.3,809.7 386.4,648.1 					"/>
				</g>
				<g>
					<polygon class="st3" points="270.3,330.4 749.6,330.4 749.6,809.7 809.7,809.7 809.7,270.3 270.3,270.3 					"/>
				</g>
				<g>
					<polygon class="st4" points="270.3,387.5 270.3,448.4 625.2,417.4 659.5,809.7 720.4,809.7 680.4,351.6 					"/>
				</g>
				<g>
					<polygon class="st5" points="270.3,495.5 270.3,557.1 515.9,513.8 568.1,809.7 629.7,809.7 565.2,443.5 					"/>
				</g>
				<g>
					<polygon class="st6" points="270.3,596.3 270.3,659.1 423.8,617.9 475.2,809.7 538,809.7 466.8,543.6 					"/>
				</g>
				<g>
					<polygon class="st7" points="270.3,782 270.3,809.7 346.1,809.7 321.9,758 					"/>
				</g>
			</g>
		</g>
	</g>
</g>
</svg>
